<svg width="140" height="140" viewBox="0 0 140 140" fill="none" xmlns="http://www.w3.org/2000/svg">
<g clip-path="url(#clip0)">
<path d="M36.54 96.5303C37.6239 96.9388 38.5016 97.7605 38.9806 98.8152C39.4596 99.8699 39.5007 101.072 39.095 102.157L25.97 137.157C25.5341 138.201 24.7103 139.036 23.6716 139.486C22.633 139.936 21.4603 139.966 20.4001 139.57C19.3398 139.173 18.4745 138.381 17.9859 137.36C17.4974 136.339 17.4235 135.168 17.78 134.094L30.905 99.094C31.1064 98.5555 31.4119 98.0619 31.8042 97.6416C32.1965 97.2212 32.6677 96.8823 33.1911 96.6442C33.7144 96.4061 34.2796 96.2734 34.8542 96.2539C35.4288 96.2344 36.0017 96.3283 36.54 96.5303V96.5303ZM62.79 96.5303C63.8739 96.9388 64.7516 97.7605 65.2306 98.8152C65.7096 99.8699 65.7507 101.072 65.345 102.157L52.22 137.157C51.7841 138.201 50.9603 139.036 49.9216 139.486C48.883 139.936 47.7103 139.966 46.6501 139.57C45.5898 139.173 44.7245 138.381 44.236 137.36C43.7474 136.339 43.6735 135.168 44.03 134.094L57.155 99.094C57.3564 98.5555 57.6619 98.0619 58.0542 97.6416C58.4465 97.2212 58.9177 96.8823 59.4411 96.6442C59.9644 96.4061 60.5296 96.2734 61.1042 96.2539C61.6788 96.2344 62.2517 96.3283 62.79 96.5303V96.5303ZM89.04 96.5303C90.1239 96.9388 91.0016 97.7605 91.4806 98.8152C91.9596 99.8699 92.0007 101.072 91.595 102.157L78.47 137.157C78.0341 138.201 77.2103 139.036 76.1716 139.486C75.133 139.936 73.9603 139.966 72.9001 139.57C71.8398 139.173 70.9745 138.381 70.4859 137.36C69.9974 136.339 69.9235 135.168 70.28 134.094L83.405 99.094C83.6064 98.5555 83.9119 98.0619 84.3042 97.6416C84.6965 97.2212 85.1677 96.8823 85.6911 96.6442C86.2144 96.4061 86.7796 96.2734 87.3542 96.2539C87.9288 96.2344 88.5017 96.3283 89.04 96.5303V96.5303ZM115.29 96.5303C116.374 96.9388 117.252 97.7605 117.731 98.8152C118.21 99.8699 118.251 101.072 117.845 102.157L104.72 137.157C104.284 138.201 103.46 139.036 102.422 139.486C101.383 139.936 100.21 139.966 99.1501 139.57C98.0898 139.173 97.2245 138.381 96.7359 137.36C96.2474 136.339 96.1735 135.168 96.53 134.094L109.655 99.094C109.856 98.5555 110.162 98.0619 110.554 97.6416C110.946 97.2212 111.418 96.8823 111.941 96.6442C112.464 96.4061 113.03 96.2734 113.604 96.2539C114.179 96.2344 114.752 96.3283 115.29 96.5303V96.5303ZM117.294 35.2366C115.477 26.0767 110.777 17.7384 103.882 11.4407C96.9865 5.14309 88.2575 1.21643 78.9709 0.234876C69.6843 -0.746675 60.3272 1.26837 52.2678 5.98538C44.2084 10.7024 37.8693 17.874 34.1775 26.4516C30.0373 25.9746 25.8434 26.3477 21.8524 27.548C17.8614 28.7483 14.1575 30.7505 10.9672 33.4321C7.77698 36.1137 5.16763 39.4182 3.29893 43.1433C1.43023 46.8684 0.341496 50.9357 0.0993906 55.0962C-0.142715 59.2568 0.466902 63.4229 1.89092 67.3396C3.31493 71.2563 5.52338 74.8412 8.38105 77.8747C11.2387 80.9082 14.6855 83.3266 18.5103 84.9817C22.3351 86.6368 26.4574 87.4938 30.625 87.5003H113.75C120.41 87.5079 126.823 84.9839 131.692 80.4397C136.56 75.8954 139.519 69.6706 139.97 63.0261C140.42 56.3817 138.329 49.8144 134.118 44.6545C129.908 39.4946 123.894 36.128 117.294 35.2366V35.2366Z" fill="#03A9F4"/>
</g>
<defs>
<clipPath id="clip0">
<rect width="140" height="140" fill="white"/>
</clipPath>
</defs>
</svg>
