<svg width="140" height="140" viewBox="0 0 140 140" fill="none" xmlns="http://www.w3.org/2000/svg">
<g clip-path="url(#clip0)">
<path d="M36.3825 105.219C36.9279 105.401 37.4321 105.688 37.8663 106.065C38.3005 106.442 38.6562 106.901 38.913 107.415C39.1698 107.93 39.3227 108.49 39.3629 109.063C39.4031 109.637 39.3299 110.213 39.1475 110.758L34.7725 123.883C34.6077 124.448 34.3306 124.974 33.9579 125.429C33.5851 125.884 33.1242 126.26 32.603 126.533C32.0817 126.806 31.5106 126.971 30.924 127.019C30.3374 127.066 29.7473 126.994 29.189 126.808C28.6307 126.622 28.1157 126.325 27.6748 125.936C27.2338 125.546 26.8761 125.071 26.6229 124.54C26.3698 124.008 26.2264 123.432 26.2014 122.844C26.1764 122.256 26.2703 121.669 26.4775 121.118L30.8525 107.993C31.2181 106.892 32.0061 105.981 33.0431 105.461C34.0801 104.941 35.2813 104.854 36.3825 105.219ZM62.6325 105.219C63.1779 105.401 63.6821 105.688 64.1163 106.065C64.5505 106.442 64.9062 106.901 65.163 107.415C65.4198 107.93 65.5727 108.49 65.6129 109.063C65.6531 109.637 65.5799 110.213 65.3975 110.758L56.6475 137.008C56.4827 137.573 56.2056 138.099 55.8329 138.554C55.4601 139.009 54.9992 139.385 54.478 139.658C53.9567 139.931 53.3856 140.096 52.799 140.144C52.2124 140.191 51.6223 140.119 51.064 139.933C50.5057 139.747 49.9907 139.45 49.5498 139.061C49.1088 138.671 48.7511 138.196 48.4979 137.665C48.2448 137.133 48.1014 136.557 48.0764 135.969C48.0514 135.381 48.1453 134.794 48.3525 134.243L57.1025 107.993C57.4681 106.892 58.256 105.981 59.2931 105.461C60.3301 104.941 61.5313 104.854 62.6325 105.219V105.219ZM88.8825 105.219C89.4279 105.401 89.9321 105.688 90.3663 106.065C90.8005 106.442 91.1562 106.901 91.413 107.415C91.6698 107.93 91.8227 108.49 91.8629 109.063C91.9031 109.637 91.8299 110.213 91.6475 110.758L87.2725 123.883C87.1077 124.448 86.8306 124.974 86.4578 125.429C86.0851 125.884 85.6242 126.26 85.103 126.533C84.5817 126.806 84.0106 126.971 83.424 127.019C82.8374 127.066 82.2473 126.994 81.689 126.808C81.1307 126.622 80.6157 126.325 80.1747 125.936C79.7338 125.546 79.3761 125.071 79.1229 124.54C78.8698 124.008 78.7264 123.432 78.7014 122.844C78.6764 122.256 78.7703 121.669 78.9775 121.118L83.3525 107.993C83.7181 106.892 84.506 105.981 85.5431 105.461C86.5801 104.941 87.7813 104.854 88.8825 105.219ZM115.132 105.219C115.678 105.401 116.182 105.688 116.616 106.065C117.051 106.442 117.406 106.901 117.663 107.415C117.92 107.93 118.073 108.49 118.113 109.063C118.153 109.637 118.08 110.213 117.897 110.758L109.147 137.008C108.983 137.573 108.706 138.099 108.333 138.554C107.96 139.009 107.499 139.385 106.978 139.658C106.457 139.931 105.886 140.096 105.299 140.144C104.712 140.191 104.122 140.119 103.564 139.933C103.006 139.747 102.491 139.45 102.05 139.061C101.609 138.671 101.251 138.196 100.998 137.665C100.745 137.133 100.601 136.557 100.576 135.969C100.551 135.381 100.645 134.794 100.852 134.243L109.602 107.993C109.968 106.892 110.756 105.981 111.793 105.461C112.83 104.941 114.031 104.854 115.132 105.219ZM117.294 43.9866C115.477 34.8267 110.777 26.4884 103.882 20.1907C96.9865 13.8931 88.2575 9.96643 78.9709 8.98488C69.6843 8.00333 60.3272 10.0184 52.2678 14.7354C44.2084 19.4524 37.8693 26.624 34.1775 35.2016C30.0373 34.7246 25.8434 35.0977 21.8524 36.298C17.8614 37.4983 14.1575 39.5005 10.9672 42.1821C7.77698 44.8637 5.16763 48.1682 3.29893 51.8933C1.43023 55.6184 0.341496 59.6857 0.0993906 63.8462C-0.142715 68.0068 0.466902 72.1729 1.89092 76.0896C3.31493 80.0064 5.52338 83.5912 8.38105 86.6247C11.2387 89.6582 14.6855 92.0766 18.5103 93.7317C22.3351 95.3868 26.4574 96.2438 30.625 96.2503H113.75C120.41 96.2579 126.823 93.734 131.692 89.1897C136.56 84.6454 139.519 78.4206 139.97 71.7761C140.42 65.1317 138.329 58.5644 134.118 53.4045C129.908 48.2446 123.894 44.878 117.294 43.9866V43.9866Z" fill="#03A9F4"/>
</g>
<defs>
<clipPath id="clip0">
<rect width="140" height="140" fill="white"/>
</clipPath>
</defs>
</svg>
