<svg width="140" height="140" viewBox="0 0 140 140" fill="none" xmlns="http://www.w3.org/2000/svg">
<g clip-path="url(#clip0)">
<path d="M26.25 118.125C26.25 116.965 26.7109 115.852 27.5314 115.032C28.3519 114.211 29.4647 113.75 30.625 113.75H109.375C110.535 113.75 111.648 114.211 112.469 115.032C113.289 115.852 113.75 116.965 113.75 118.125C113.75 119.286 113.289 120.398 112.469 121.219C111.648 122.039 110.535 122.5 109.375 122.5H30.625C29.4647 122.5 28.3519 122.039 27.5314 121.219C26.7109 120.398 26.25 119.286 26.25 118.125ZM26.25 135.625C26.25 134.465 26.7109 133.352 27.5314 132.532C28.3519 131.711 29.4647 131.25 30.625 131.25H109.375C110.535 131.25 111.648 131.711 112.469 132.532C113.289 133.352 113.75 134.465 113.75 135.625C113.75 136.786 113.289 137.898 112.469 138.719C111.648 139.539 110.535 140 109.375 140H30.625C29.4647 140 28.3519 139.539 27.5314 138.719C26.7109 137.898 26.25 136.786 26.25 135.625ZM117.294 52.7366C115.477 43.5767 110.777 35.2384 103.882 28.9407C96.9865 22.6431 88.2575 18.7164 78.9709 17.7349C69.6843 16.7533 60.3272 18.7684 52.2678 23.4854C44.2084 28.2024 37.8693 35.374 34.1775 43.9515C30.0373 43.4746 25.8434 43.8477 21.8524 45.048C17.8614 46.2483 14.1575 48.2505 10.9672 50.9321C7.77698 53.6137 5.16763 56.9182 3.29893 60.6433C1.43023 64.3684 0.341496 68.4357 0.0993906 72.5962C-0.142715 76.7568 0.466902 80.9229 1.89092 84.8396C3.31493 88.7563 5.52338 92.3412 8.38105 95.3747C11.2387 98.4082 14.6855 100.827 18.5103 102.482C22.3351 104.137 26.4574 104.994 30.625 105H113.75C120.41 105.008 126.823 102.484 131.692 97.9397C136.56 93.3954 139.519 87.1706 139.97 80.5261C140.42 73.8817 138.329 67.3144 134.118 62.1545C129.908 56.9946 123.894 53.628 117.294 52.7366V52.7366Z" fill="#03A9F4"/>
</g>
<defs>
<clipPath id="clip0">
<rect width="140" height="140" fill="white"/>
</clipPath>
</defs>
</svg>
