<svg width="140" height="140" viewBox="0 0 140 140" fill="none" xmlns="http://www.w3.org/2000/svg">
<g clip-path="url(#clip0)">
<path d="M100.389 96.2502C99.4043 87.3789 95.435 79.1053 89.1315 72.7859C82.828 66.4665 74.5645 62.4762 65.6958 61.4693C56.827 60.4624 47.8793 62.4986 40.3196 67.2442C32.7599 71.9897 27.0368 79.1629 24.0887 87.5877C17.3332 88.1406 11.0534 91.2853 6.56393 96.3634C2.07441 101.441 -0.276803 108.059 0.00245802 114.832C0.281719 121.604 3.1698 128.006 8.06216 132.697C12.9545 137.388 19.4719 140.005 26.25 140H100.625C106.427 140 111.991 137.696 116.093 133.593C120.195 129.491 122.5 123.927 122.5 118.125C122.5 112.324 120.195 106.76 116.093 102.657C111.991 98.5549 106.427 96.2502 100.625 96.2502H100.389Z" fill="#03A9F4"/>
<path d="M98.7525 15.5579C99.2554 14.8053 99.5125 13.9152 99.4884 13.0104C99.4642 12.1056 99.16 11.2305 98.6177 10.5058C98.0754 9.78109 97.3216 9.24244 96.4603 8.96408C95.599 8.68573 94.6726 8.68137 93.8087 8.95161C84.749 11.7889 76.9854 17.7405 71.8928 25.7526C66.8001 33.7647 64.7069 43.3205 65.9837 52.7279C69.1135 53.0322 72.2056 53.6447 75.215 54.5566C73.8638 48.7983 74.1599 42.7759 76.0692 37.1779C77.9786 31.5798 81.4242 26.6317 86.0125 22.8991C84.497 28.7425 84.3175 34.8523 85.4871 40.7747C86.6567 46.697 89.1455 52.2798 92.7687 57.1084C96.3918 61.937 101.056 65.8873 106.415 68.666C111.775 71.4448 117.691 72.9805 123.725 73.1591C117.991 77.1445 111.088 79.0973 104.116 78.7066C105.534 81.4804 106.697 84.4116 107.564 87.4566C113.881 87.1876 120.046 85.4307 125.556 82.3289C131.067 79.2271 135.767 74.8681 139.274 69.6066C139.777 68.854 140.034 67.964 140.01 67.0591C139.985 66.1543 139.681 65.2792 139.139 64.5545C138.597 63.8298 137.843 63.2912 136.982 63.0128C136.12 62.7345 135.194 62.7301 134.33 63.0004C128.124 64.9484 121.466 64.9234 115.274 62.9287C109.083 60.934 103.662 57.0679 99.7604 51.8633C95.8584 46.6587 93.6669 40.3719 93.4879 33.8695C93.309 27.3671 95.1514 20.9692 98.7612 15.5579H98.7525Z" fill="#FCB60F"/>
</g>
<defs>
<clipPath id="clip0">
<rect width="140" height="140" fill="white"/>
</clipPath>
</defs>
</svg>
