<svg width="140" height="140" viewBox="0 0 140 140" fill="none" xmlns="http://www.w3.org/2000/svg">
<g clip-path="url(#clip0)">
<path d="M100.389 96.2502C99.4044 87.3789 95.435 79.1053 89.1316 72.7859C82.8281 66.4665 74.5646 62.4762 65.6958 61.4693C56.8271 60.4624 47.8794 62.4986 40.3197 67.2442C32.76 71.9897 27.0369 79.1629 24.0888 87.5877C17.3333 88.1406 11.0535 91.2853 6.56401 96.3634C2.07449 101.441 -0.276725 108.059 0.00253622 114.832C0.281797 121.604 3.16988 128.006 8.06224 132.697C12.9546 137.388 19.472 140.005 26.2501 140H100.625C106.427 140 111.991 137.696 116.093 133.593C120.195 129.491 122.5 123.927 122.5 118.125C122.5 112.324 120.195 106.76 116.093 102.657C111.991 98.5549 106.427 96.2502 100.625 96.2502H100.389Z" fill="#03A9F4"/>
<path d="M91.875 13.125C91.875 11.9647 91.414 10.8519 90.5936 10.0314C89.7731 9.21094 88.6603 8.75 87.5 8.75C86.3396 8.75 85.2268 9.21094 84.4064 10.0314C83.5859 10.8519 83.125 11.9647 83.125 13.125V21.875C83.125 23.0353 83.5859 24.1481 84.4064 24.9686C85.2268 25.7891 86.3396 26.25 87.5 26.25C88.6603 26.25 89.7731 25.7891 90.5936 24.9686C91.414 24.1481 91.875 23.0353 91.875 21.875V13.125ZM124.626 30.31C125.044 29.9064 125.377 29.4237 125.607 28.8899C125.836 28.3561 125.957 27.782 125.962 27.2011C125.967 26.6202 125.856 26.0441 125.636 25.5065C125.416 24.9688 125.091 24.4803 124.68 24.0695C124.27 23.6587 123.781 23.3339 123.244 23.1139C122.706 22.8939 122.13 22.7832 121.549 22.7883C120.968 22.7933 120.394 22.914 119.86 23.1433C119.326 23.3726 118.844 23.7059 118.44 24.1237L112.245 30.31C111.423 31.1315 110.962 32.2457 110.962 33.4075C110.962 34.5693 111.423 35.6835 112.245 36.505C113.066 37.3265 114.181 37.788 115.342 37.788C116.504 37.788 117.618 37.3265 118.44 36.505L124.626 30.31ZM56.56 24.1237C55.7348 23.3268 54.6297 22.8858 53.4826 22.8958C52.3355 22.9058 51.2382 23.3659 50.427 24.177C49.6158 24.9882 49.1557 26.0855 49.1458 27.2326C49.1358 28.3797 49.5768 29.4849 50.3737 30.31L56.56 36.505C56.9667 36.9118 57.4496 37.2344 57.9811 37.4546C58.5126 37.6747 59.0822 37.788 59.6575 37.788C60.2327 37.788 60.8023 37.6747 61.3338 37.4546C61.8653 37.2344 62.3482 36.9118 62.755 36.505C63.1617 36.0982 63.4844 35.6153 63.7045 35.0839C63.9247 34.5524 64.038 33.9828 64.038 33.4075C64.038 32.8322 63.9247 32.2626 63.7045 31.7311C63.4844 31.1997 63.1617 30.7168 62.755 30.31L56.56 24.1237ZM71.7325 53.6462C72.82 51.3926 74.3781 49.3984 76.3019 47.7981C78.2256 46.1978 80.4702 45.0287 82.8841 44.3696C85.2981 43.7106 87.8253 43.5768 90.2954 43.9775C92.7654 44.3781 95.1208 45.3039 97.2027 46.6922C99.2845 48.0805 101.044 49.8992 102.364 52.0255C103.683 54.1518 104.531 56.5363 104.85 59.0182C105.17 61.5 104.953 64.0215 104.215 66.4126C103.477 68.8036 102.235 71.0086 100.572 72.8788C102.314 75.3375 103.827 77.9712 105.087 80.7362C108.053 78.057 110.367 74.736 111.854 71.0266C113.341 67.3171 113.962 63.317 113.668 59.3314C113.375 55.3457 112.175 51.4797 110.161 48.028C108.147 44.5764 105.371 41.6302 102.045 39.4142C98.7191 37.1982 94.9312 35.7707 90.9701 35.2408C87.0089 34.7108 82.9791 35.0923 79.1877 36.3562C75.3964 37.6201 71.9437 39.7329 69.0929 42.5337C66.242 45.3344 64.0683 48.7492 62.7375 52.5175C65.8175 52.6137 68.8275 52.9987 71.7325 53.6462ZM110.967 89.2937C116.217 91.175 120.811 94.4563 124.285 98.6738C124.761 98.288 125.151 97.8064 125.43 97.2603C125.708 96.7141 125.868 96.1156 125.901 95.5034C125.933 94.8913 125.836 94.2793 125.616 93.7069C125.397 93.1346 125.059 92.6148 124.626 92.1812L118.44 85.995C117.816 85.3676 117.017 84.944 116.148 84.7801C115.278 84.6162 114.38 84.7198 113.57 85.077C112.761 85.4343 112.079 86.0286 111.614 86.7814C111.15 87.5342 110.924 88.4101 110.967 89.2937ZM126.875 56.875C125.715 56.875 124.602 57.3359 123.781 58.1564C122.961 58.9769 122.5 60.0897 122.5 61.25C122.5 62.4103 122.961 63.5231 123.781 64.3436C124.602 65.1641 125.715 65.625 126.875 65.625H135.625C136.785 65.625 137.898 65.1641 138.719 64.3436C139.539 63.5231 140 62.4103 140 61.25C140 60.0897 139.539 58.9769 138.719 58.1564C137.898 57.3359 136.785 56.875 135.625 56.875H126.875Z" fill="#FCB60F"/>
</g>
<defs>
<clipPath id="clip0">
<rect width="140" height="140" fill="white"/>
</clipPath>
</defs>
</svg>
