<svg width="140" height="140" viewBox="0 0 140 140" fill="none" xmlns="http://www.w3.org/2000/svg">
<g clip-path="url(#clip0)">
<path d="M22.9689 100.625C23.549 100.625 24.1054 100.856 24.5157 101.266C24.9259 101.676 25.1564 102.233 25.1564 102.813V107.8L29.5401 105.289C30.0426 105.017 30.6314 104.953 31.1807 105.11C31.7299 105.267 32.1961 105.632 32.4794 106.128C32.7628 106.624 32.841 107.211 32.6972 107.764C32.5535 108.317 32.1992 108.792 31.7101 109.087L27.3789 111.563L31.7101 114.039C32.1992 114.334 32.5535 114.809 32.6972 115.362C32.841 115.914 32.7628 116.501 32.4794 116.997C32.1961 117.493 31.7299 117.859 31.1807 118.016C30.6314 118.172 30.0426 118.108 29.5401 117.837L25.1564 115.334V120.313C25.1564 120.893 24.9259 121.449 24.5157 121.86C24.1054 122.27 23.549 122.5 22.9689 122.5C22.3887 122.5 21.8323 122.27 21.4221 121.86C21.0118 121.449 20.7814 120.893 20.7814 120.313V115.325L16.3976 117.837C15.8951 118.108 15.3063 118.172 14.7571 118.016C14.2078 117.859 13.7417 117.493 13.4583 116.997C13.1749 116.501 13.0967 115.914 13.2405 115.362C13.3842 114.809 13.7385 114.334 14.2276 114.039L18.5589 111.563L14.2276 109.087C13.7385 108.792 13.3842 108.317 13.2405 107.764C13.0967 107.211 13.1749 106.624 13.4583 106.128C13.7417 105.632 14.2078 105.267 14.7571 105.11C15.3063 104.953 15.8951 105.017 16.3976 105.289L20.7814 107.792V102.813C20.7814 102.233 21.0118 101.676 21.4221 101.266C21.8323 100.856 22.3887 100.625 22.9689 100.625V100.625ZM47.0314 118.125C47.6115 118.125 48.1679 118.356 48.5782 118.766C48.9884 119.176 49.2189 119.733 49.2189 120.313V125.3L53.5939 122.789C54.0974 122.5 54.6952 122.423 55.2556 122.575C55.8159 122.727 56.2931 123.095 56.582 123.598C56.8709 124.102 56.9479 124.7 56.7962 125.26C56.6444 125.821 56.2762 126.298 55.7726 126.587L51.4414 129.063L55.7726 131.539C56.2617 131.834 56.616 132.309 56.7597 132.862C56.9035 133.414 56.8253 134.001 56.5419 134.497C56.2586 134.993 55.7924 135.359 55.2432 135.516C54.6939 135.672 54.1051 135.608 53.6026 135.337L49.2189 132.834V137.813C49.2189 138.393 48.9884 138.949 48.5782 139.36C48.1679 139.77 47.6115 140 47.0314 140C46.4512 140 45.8948 139.77 45.4846 139.36C45.0743 138.949 44.8439 138.393 44.8439 137.813V132.825L40.4601 135.337C39.9576 135.608 39.3688 135.672 38.8196 135.516C38.2703 135.359 37.8042 134.993 37.5208 134.497C37.2374 134.001 37.1592 133.414 37.303 132.862C37.4467 132.309 37.801 131.834 38.2901 131.539L42.6214 129.063L38.2901 126.587C37.801 126.292 37.4467 125.817 37.303 125.264C37.1592 124.711 37.2374 124.124 37.5208 123.628C37.8042 123.132 38.2703 122.767 38.8196 122.61C39.3688 122.453 39.9576 122.517 40.4601 122.789L44.8439 125.292V120.313C44.8439 119.733 45.0743 119.176 45.4846 118.766C45.8948 118.356 46.4512 118.125 47.0314 118.125V118.125ZM95.1564 118.125C95.7365 118.125 96.2929 118.356 96.7032 118.766C97.1134 119.176 97.3439 119.733 97.3439 120.313V125.3L101.719 122.789C101.968 122.646 102.243 122.553 102.528 122.517C102.814 122.48 103.103 122.5 103.381 122.575C103.658 122.65 103.918 122.779 104.146 122.955C104.373 123.13 104.564 123.349 104.707 123.598C104.85 123.848 104.943 124.123 104.979 124.408C105.016 124.693 104.996 124.983 104.921 125.26C104.846 125.538 104.717 125.798 104.541 126.025C104.366 126.253 104.147 126.443 103.898 126.587L99.5664 129.063L103.898 131.539C104.387 131.834 104.741 132.309 104.885 132.862C105.029 133.414 104.95 134.001 104.667 134.497C104.384 134.993 103.917 135.359 103.368 135.516C102.819 135.672 102.23 135.608 101.728 135.337L97.3439 132.834V137.813C97.3439 138.393 97.1134 138.949 96.7032 139.36C96.2929 139.77 95.7365 140 95.1564 140C94.5762 140 94.0198 139.77 93.6096 139.36C93.1993 138.949 92.9689 138.393 92.9689 137.813V132.825L88.5851 135.337C88.0826 135.608 87.4938 135.672 86.9446 135.516C86.3953 135.359 85.9292 134.993 85.6458 134.497C85.3624 134.001 85.2842 133.414 85.428 132.862C85.5717 132.309 85.926 131.834 86.4151 131.539L90.7464 129.063L86.4151 126.587C85.926 126.292 85.5717 125.817 85.428 125.264C85.2842 124.711 85.3624 124.124 85.6458 123.628C85.9292 123.132 86.3953 122.767 86.9446 122.61C87.4938 122.453 88.0826 122.517 88.5851 122.789L92.9689 125.292V120.313C92.9689 119.733 93.1993 119.176 93.6096 118.766C94.0198 118.356 94.5762 118.125 95.1564 118.125V118.125ZM71.0939 100.625C71.674 100.625 72.2304 100.856 72.6407 101.266C73.0509 101.676 73.2814 102.233 73.2814 102.813V107.8L77.6564 105.289C78.1599 105 78.7577 104.923 79.318 105.075C79.8784 105.227 80.3556 105.595 80.6445 106.098C80.9334 106.602 81.0104 107.2 80.8587 107.76C80.7069 108.321 80.3387 108.798 79.8351 109.087L75.5039 111.563L79.8351 114.039C80.3242 114.334 80.6785 114.809 80.8222 115.362C80.966 115.914 80.8878 116.501 80.6044 116.997C80.3211 117.493 79.8549 117.859 79.3057 118.016C78.7564 118.172 78.1676 118.108 77.6651 117.837L73.2814 115.334V120.313C73.2814 120.893 73.0509 121.449 72.6407 121.86C72.2304 122.27 71.674 122.5 71.0939 122.5C70.5137 122.5 69.9573 122.27 69.5471 121.86C69.1368 121.449 68.9064 120.893 68.9064 120.313V115.325L64.5226 117.837C64.0201 118.108 63.4313 118.172 62.8821 118.016C62.3328 117.859 61.8667 117.493 61.5833 116.997C61.2999 116.501 61.2217 115.914 61.3655 115.362C61.5092 114.809 61.8635 114.334 62.3526 114.039L66.6839 111.563L62.3526 109.087C61.8635 108.792 61.5092 108.317 61.3655 107.764C61.2217 107.211 61.2999 106.624 61.5833 106.128C61.8667 105.632 62.3328 105.267 62.8821 105.11C63.4313 104.953 64.0201 105.017 64.5226 105.289L68.9064 107.792V102.813C68.9064 102.233 69.1368 101.676 69.5471 101.266C69.9573 100.856 70.5137 100.625 71.0939 100.625V100.625ZM119.219 100.625C119.799 100.625 120.355 100.856 120.766 101.266C121.176 101.676 121.406 102.233 121.406 102.813V107.8L125.781 105.289C126.285 105 126.883 104.923 127.443 105.075C128.003 105.227 128.481 105.595 128.769 106.098C129.058 106.602 129.135 107.2 128.984 107.76C128.832 108.321 128.464 108.798 127.96 109.087L123.629 111.563L127.96 114.039C128.449 114.334 128.803 114.809 128.947 115.362C129.091 115.914 129.013 116.501 128.729 116.997C128.446 117.493 127.98 117.859 127.431 118.016C126.881 118.172 126.293 118.108 125.79 117.837L121.406 115.334V120.313C121.406 120.893 121.176 121.449 120.766 121.86C120.355 122.27 119.799 122.5 119.219 122.5C118.639 122.5 118.082 122.27 117.672 121.86C117.262 121.449 117.031 120.893 117.031 120.313V115.325L112.648 117.837C112.398 117.987 112.121 118.086 111.832 118.128C111.543 118.17 111.249 118.154 110.967 118.081C110.685 118.007 110.42 117.878 110.189 117.701C109.957 117.524 109.763 117.302 109.618 117.049C109.474 116.796 109.381 116.516 109.346 116.227C109.311 115.937 109.334 115.643 109.414 115.363C109.494 115.083 109.63 114.821 109.812 114.594C109.995 114.366 110.221 114.178 110.478 114.039L114.809 111.563L110.478 109.087C109.989 108.792 109.634 108.317 109.49 107.764C109.347 107.211 109.425 106.624 109.708 106.128C109.992 105.632 110.458 105.267 111.007 105.11C111.556 104.953 112.145 105.017 112.648 105.289L117.031 107.792V102.813C117.031 102.233 117.262 101.676 117.672 101.266C118.082 100.856 118.639 100.625 119.219 100.625V100.625ZM117.294 37.4241C115.477 28.2642 110.777 19.9259 103.882 13.6282C96.9866 7.33059 88.2576 3.40393 78.971 2.42238C69.6844 1.44083 60.3273 3.45587 52.2679 8.17288C44.2085 12.8899 37.8694 20.0615 34.1776 28.6391C30.0374 28.1621 25.8435 28.5352 21.8525 29.7355C17.8616 30.9358 14.1576 32.938 10.9673 35.6196C7.7771 38.3012 5.16775 41.6057 3.29905 45.3308C1.43034 49.0559 0.34161 53.1232 0.0995051 57.2837C-0.1426 61.4443 0.467017 65.6104 1.89103 69.5271C3.31505 73.4438 5.52349 77.0287 8.38116 80.0622C11.2388 83.0957 14.6856 85.5141 18.5104 87.1692C22.3352 88.8243 26.4576 89.6813 30.6251 89.6878H113.75C120.41 89.6954 126.823 87.1714 131.692 82.6272C136.56 78.0829 139.519 71.8581 139.97 65.2136C140.421 58.5692 138.329 52.0019 134.118 46.842C129.908 41.6821 123.894 38.3155 117.294 37.4241V37.4241Z" fill="#03A9F4"/>
</g>
<defs>
<clipPath id="clip0">
<rect width="140" height="140" fill="white"/>
</clipPath>
</defs>
</svg>
