<svg width="140" height="140" viewBox="0 0 140 140" fill="none" xmlns="http://www.w3.org/2000/svg">
<path d="M105 70C105 79.2826 101.313 88.185 94.7487 94.7487C88.185 101.313 79.2826 105 70 105C60.7174 105 51.815 101.313 45.2513 94.7487C38.6875 88.185 35 79.2826 35 70C35 60.7174 38.6875 51.815 45.2513 45.2513C51.815 38.6875 60.7174 35 70 35C79.2826 35 88.185 38.6875 94.7487 45.2513C101.313 51.815 105 60.7174 105 70V70ZM70 0C71.1603 0 72.2731 0.460936 73.0936 1.28141C73.9141 2.10188 74.375 3.21468 74.375 4.375V21.875C74.375 23.0353 73.9141 24.1481 73.0936 24.9686C72.2731 25.7891 71.1603 26.25 70 26.25C68.8397 26.25 67.7269 25.7891 66.9064 24.9686C66.0859 24.1481 65.625 23.0353 65.625 21.875V4.375C65.625 3.21468 66.0859 2.10188 66.9064 1.28141C67.7269 0.460936 68.8397 0 70 0V0ZM70 113.75C71.1603 113.75 72.2731 114.211 73.0936 115.031C73.9141 115.852 74.375 116.965 74.375 118.125V135.625C74.375 136.785 73.9141 137.898 73.0936 138.719C72.2731 139.539 71.1603 140 70 140C68.8397 140 67.7269 139.539 66.9064 138.719C66.0859 137.898 65.625 136.785 65.625 135.625V118.125C65.625 116.965 66.0859 115.852 66.9064 115.031C67.7269 114.211 68.8397 113.75 70 113.75V113.75ZM140 70C140 71.1603 139.539 72.2731 138.719 73.0936C137.898 73.9141 136.785 74.375 135.625 74.375H118.125C116.965 74.375 115.852 73.9141 115.031 73.0936C114.211 72.2731 113.75 71.1603 113.75 70C113.75 68.8397 114.211 67.7269 115.031 66.9064C115.852 66.0859 116.965 65.625 118.125 65.625H135.625C136.785 65.625 137.898 66.0859 138.719 66.9064C139.539 67.7269 140 68.8397 140 70ZM26.25 70C26.25 71.1603 25.7891 72.2731 24.9686 73.0936C24.1481 73.9141 23.0353 74.375 21.875 74.375H4.375C3.21468 74.375 2.10188 73.9141 1.28141 73.0936C0.460936 72.2731 0 71.1603 0 70C0 68.8397 0.460936 67.7269 1.28141 66.9064C2.10188 66.0859 3.21468 65.625 4.375 65.625H21.875C23.0353 65.625 24.1481 66.0859 24.9686 66.9064C25.7891 67.7269 26.25 68.8397 26.25 70ZM119.499 20.5012C120.319 21.3217 120.78 22.4343 120.78 23.5944C120.78 24.7545 120.319 25.8671 119.499 26.6875L107.126 39.0688C106.719 39.4749 106.237 39.797 105.705 40.0167C105.174 40.2363 104.605 40.3491 104.03 40.3487C102.869 40.3479 101.756 39.8859 100.936 39.0644C100.529 38.6576 100.207 38.1748 99.9877 37.6436C99.7681 37.1123 99.6553 36.543 99.6557 35.9682C99.6565 34.8072 100.118 33.6941 100.94 32.8737L113.312 20.5012C114.133 19.6811 115.246 19.2203 116.406 19.2203C117.566 19.2203 118.678 19.6811 119.499 20.5012V20.5012ZM39.06 100.94C39.8802 101.76 40.3409 102.873 40.3409 104.033C40.3409 105.193 39.8802 106.306 39.06 107.126L26.6875 119.499C25.8624 120.296 24.7572 120.737 23.6101 120.727C22.463 120.717 21.3657 120.257 20.5545 119.445C19.7434 118.634 19.2833 117.537 19.2733 116.39C19.2633 115.243 19.7043 114.138 20.5012 113.312L32.8737 100.94C33.6942 100.12 34.8068 99.6591 35.9669 99.6591C37.127 99.6591 38.2396 100.12 39.06 100.94V100.94ZM119.499 119.499C118.678 120.319 117.566 120.78 116.406 120.78C115.246 120.78 114.133 120.319 113.312 119.499L100.94 107.126C100.143 106.301 99.7021 105.196 99.7121 104.049C99.722 102.902 100.182 101.804 100.993 100.993C101.804 100.182 102.902 99.722 104.049 99.7121C105.196 99.7021 106.301 100.143 107.126 100.94L119.499 113.312C120.319 114.133 120.78 115.246 120.78 116.406C120.78 117.566 120.319 118.678 119.499 119.499ZM39.06 39.0688C38.2396 39.8889 37.127 40.3497 35.9669 40.3497C34.8068 40.3497 33.6942 39.8889 32.8737 39.0688L20.5012 26.6875C20.0834 26.2839 19.7501 25.8012 19.5208 25.2674C19.2915 24.7336 19.1708 24.1595 19.1658 23.5786C19.1607 22.9977 19.2714 22.4216 19.4914 21.884C19.7114 21.3463 20.0362 20.8578 20.447 20.447C20.8578 20.0362 21.3463 19.7114 21.884 19.4914C22.4216 19.2714 22.9977 19.1607 23.5786 19.1658C24.1595 19.1708 24.7336 19.2915 25.2674 19.5208C25.8012 19.7501 26.2839 20.0834 26.6875 20.5012L39.06 32.8737C39.4674 33.2801 39.7907 33.7629 40.0112 34.2945C40.2318 34.826 40.3453 35.3958 40.3453 35.9713C40.3453 36.5467 40.2318 37.1165 40.0112 37.648C39.7907 38.1796 39.4674 38.6624 39.06 39.0688V39.0688Z" fill="#FCB60F"/>
</svg>
